/* XPM */
static char * dir32_xpm[] = {
/* width height ncolors chars_per_pixel */
"32 32 6 1",
/* colors */
" 	s None	c None",
".	c black",
"X	c SteelBlue",
"o	c gray",
"O	c white",
"+	c Gray50",
/* pixels */
"                                ",
"                                ",
"                                ",
"    ..                          ",
"    .X...                       ",
"  ...oXoX...    ..              ",
"  .O...XoXoX... .X...           ",
"  .XXXO...XoXoX.XoXoX..         ",
"  .XXXXXXO...XoXoXoXoX.         ",
"  .XXXXXXXXXO...XoXoXoX.        ",
"  .XXXXXXXXXXXXO...XoXoX..      ",
"  .XXXXXXXXXXXXXXXO...XoX.      ",
"  .XXXXXXXXXXXXXXXXXXO..o.      ",
"  .XXXXXXXXXXXXXXXXXXXo.X.      ",
"  .XXXXXXXXXXXXXXXXXXXX.o.      ",
"  .XXXXXXXXXXXXXXXXXXXo.X.      ",
"  .XXXXXXXXXXXXXXXXXXXX.o.      ",
"  .XXXXXXXXXXXXXXXXXXXo.X.      ",
"  .XXXXXXXXXXXXXXXXXXXX.o.      ",
"  .XXXXXXXXXXXXXXXXXXXo.X.      ",
"  .XXXXXXXXXXXXXXXXXXXX.o.      ",
"  .XXXXXXXXXXXXXXXXXXXo.X.      ",
"  ..XXXXXXXXXXXXXXXXXXX.o.      ",
"    ...XXXXXXXXXXXXXXXo.X.      ",
"       ...XXXXXXXXXXXXX.o.      ",
"          ...XXXXXXXXXo.X.oo    ",
"             ...XXXXXXX.o.+++o  ",
"                ...XXXo.X.++o   ",
"                   ...X.o.+o    ",
"                      ....o     ",
"                                ",
"                                "};
