/* XPM */
static char * slide32_xpm[] = {
/* width height ncolors chars_per_pixel */
"32 32 9 1",
/* colors */
" 	s None	c None",
".	c black",
"X	c #c000c000c000",
"o	c #800080008000",
"O	c #0000ff00ff00",
"+	c #ff00ff000000",
"@	c white",
"#	c #000080000000",
"$	c #0000ff000000",
/* pixels */
"                                ",
"                                ",
"  ..........................    ",
"  .XXXXXXXXXXXXXXXXXXXXXXXX.o   ",
"  .XXXXXXXXXXXXXXXXXXXXXXXX.oX  ",
"  .XXXXXXXXXXXXXXXXXXXXXXXX.oX  ",
"  .XXXX................XXXX.oX  ",
"  .XXXX.OOOOOO+++OOOOO.XXXX.oX  ",
"  .XXXX.@@@@O+++++OO@@.XXXX.oX  ",
"  .XXXX.O@@@O+++++O@@@.XXXX.oX  ",
"  .XXXX.OOOOOO+++OO@@@.XXXX.oX  ",
"  .XXXX.OOOOOOOOOOOOO@.XXXX.oX  ",
"  .XXXX.OOOOOOOOOOOOOO.XXXX.oX  ",
"   .XXX.##OOOOOOOOOOOO.XXX.oX   ",
"    .XX.$$#OOOOOOOOOOO.XX.oX    ",
"    .XX.$$$##OOOOOO###.XX.oX    ",
"   .XXX.$$$$$##OO##$$$.XXX.X    ",
"  .XXXX.$##$$$$##$$$$$.XXXX.    ",
"  .XXXX.#$##$$#$$$$$$$.XXXX.o   ",
"  .XXXX.$$$$##$$$$$$$$.XXXX.oX  ",
"  .XXXX.$$$$$$$$$$$$$$.XXXX.oX  ",
"  .XXXX.$$$$$$$$$$$$$$.XXXX.oX  ",
"  .XXXX................XXXX.oX  ",
"  .XXXXXXXXXXXXXXXXXXXXXXXX.oX  ",
"  .XXXXXXXXXXXXXoooooooXXXX.oX  ",
"  .XXXXXXXXXXXXXoXooXoXXXXX.oX  ",
"  .XXXXXXXXXXXXXXXXXXXXXXXX.oX  ",
"  ..........................oX  ",
"   oooooooooooooooooooooooooXX  ",
"    XXXXXXXXXXXXXXXXXXXXXXXXX   ",
"                                ",
"                                "};
