/* XPM */
static char * slide_xpm[] = {
/* width height ncolors chars_per_pixel */
"16 16 3 1",
/* colors */
" 	s None	c None",
".	c white",
"X	c black",
/* pixels */
"                ",
"                ",
" .XX.XXXXXX.XX. ",
" ....XXXXXX.... ",
" .XX........XX. ",
" .XX.XXXXXX.XX. ",
" ....XXXXXX.... ",
" .XX.XXXXXX.XX. ",
" .XX.XXXXXX.XX. ",
" ....XXXXXX.... ",
" .XX.XXXXXX.XX. ",
" .XX........XX. ",
" ....XXXXXX.... ",
" .XX.XXXXXX.XX. ",
"                ",
"                "};
