/* XPM */
static char * trash_xpm[] = {
/* width height ncolors chars_per_pixel */
"32 32 5 1",
/* colors */
" 	s None	c None",
".	c #cc00cc00cc00",
"X	c white",
"o	c black",
"O	c #800080008000",
/* pixels */
"                                ",
"                                ",
"           .........X           ",
"           oooooooooo           ",
"     ...............OOOOOOO     ",
"      oooooooooooooooooooo      ",
"      OOOOO..X....OXOOOOOO      ",
"      OOOOO.X......X.OOOOO      ",
"      OOo.OXo....O.X.o.OOO      ",
"      OO.oO..o....OX..oOOO      ",
"      OO.oO..o....oX..oOOO      ",
"      OO.oO..o....OX..oOOO      ",
"      OO.oO..o....oX..oOOO      ",
"      OO.oO..o....OX..oOOO      ",
"      OO.oO..o....oX..oOOO      ",
"      OO.oO..o....OX..oOOO      ",
"      OO.oO..o....oX..oOOO      ",
"      OO.oO..o....OX..oOOO      ",
"      OO.oO..o....oX..oOOO      ",
"      OO.oO..o....OX..oOOO      ",
"      OO.oO..o....oX..oOOO      ",
"      OO.oO..o....OX..oOOO      ",
"      OO.oO..o....oX..oOOO      ",
"      OO.oO..o....OX..oOOO      ",
"      OO.oO..o....oX..oOOO      ",
"      OO.oO..o....OX..oOOO      ",
"      OO.oO..o....oX..oOOO      ",
"      OO.oO..o....OX..oOOO      ",
"      OOo.OXo....O.X.o.OOO      ",
"      OOOOO.X......XOOOOOO      ",
"                                ",
"                                "};
